{
    "asset" : {
        "generator" : "Khronos glTF Blender I/O v3.3.32",
        "version" : "2.0"
    },
    "extensionsUsed" : [
        "KHR_materials_unlit"
    ],
    "scene" : 0,
    "scenes" : [
        {
            "name" : "Scene",
            "nodes" : [
                0,
                1,
                2
            ]
        }
    ],
    "nodes" : [
        {
            "mesh" : 0,
            "name" : "XHandle",
            "rotation" : [
                0,
                0,
                -0.7071067094802856,
                0.7071068286895752
            ]
        },
        {
            "mesh" : 1,
            "name" : "YHandle",
            "rotation" : [
                0.7071067094802856,
                0,
                0,
                0.7071068286895752
            ],
            "scale" : [
                0.9807540774345398,
                0.9807540774345398,
                0.9807540774345398
            ]
        },
        {
            "mesh" : 2,
            "name" : "ZHandle",
            "scale" : [
                1.0229003429412842,
                1.0229003429412842,
                1.0229003429412842
            ]
        }
    ],
    "materials" : [
        {
            "doubleSided" : true,
            "extensions" : {
                "KHR_materials_unlit" : {}
            },
            "name" : "Green",
            "pbrMetallicRoughness" : {
                "baseColorTexture" : {
                    "index" : 0,
                    "texCoord" : 0
                },
                "metallicFactor" : 0,
                "roughnessFactor" : 0.9
            }
        },
        {
            "doubleSided" : true,
            "extensions" : {
                "KHR_materials_unlit" : {}
            },
            "name" : "Red",
            "pbrMetallicRoughness" : {
                "baseColorTexture" : {
                    "index" : 1,
                    "texCoord" : 0
                },
                "metallicFactor" : 0,
                "roughnessFactor" : 0.9
            }
        },
        {
            "doubleSided" : true,
            "extensions" : {
                "KHR_materials_unlit" : {}
            },
            "name" : "Blue.002",
            "pbrMetallicRoughness" : {
                "baseColorTexture" : {
                    "index" : 2,
                    "texCoord" : 0
                },
                "metallicFactor" : 0,
                "roughnessFactor" : 0.9
            }
        }
    ],
    "meshes" : [
        {
            "name" : "X",
            "primitives" : [
                {
                    "attributes" : {
                        "POSITION" : 0,
                        "NORMAL" : 1,
                        "TEXCOORD_0" : 2
                    },
                    "indices" : 3,
                    "material" : 0
                }
            ]
        },
        {
            "name" : "X.001",
            "primitives" : [
                {
                    "attributes" : {
                        "POSITION" : 4,
                        "NORMAL" : 5,
                        "TEXCOORD_0" : 6
                    },
                    "indices" : 7,
                    "material" : 1
                }
            ]
        },
        {
            "name" : "X.002",
            "primitives" : [
                {
                    "attributes" : {
                        "POSITION" : 8,
                        "NORMAL" : 9,
                        "TEXCOORD_0" : 10
                    },
                    "indices" : 11,
                    "material" : 2
                }
            ]
        }
    ],
    "textures" : [
        {
            "sampler" : 0,
            "source" : 0
        },
        {
            "sampler" : 0,
            "source" : 1
        },
        {
            "sampler" : 0,
            "source" : 2
        }
    ],
    "images" : [
        {
            "bufferView" : 4,
            "mimeType" : "image/png",
            "name" : "GREEN"
        },
        {
            "bufferView" : 9,
            "mimeType" : "image/jpeg",
            "name" : "cadmium-red-painted-swatch"
        },
        {
            "bufferView" : 14,
            "mimeType" : "image/jpeg",
            "name" : "cobalt-blue-painted-swatch-F-1"
        }
    ],
    "accessors" : [
        {
            "bufferView" : 0,
            "componentType" : 5126,
            "count" : 6676,
            "max" : [
                0.9987990856170654,
                0.08008585125207901,
                0.9888110756874084
            ],
            "min" : [
                -0.9987990856170654,
                -0.03477887436747551,
                -0.9888110756874084
            ],
            "type" : "VEC3"
        },
        {
            "bufferView" : 1,
            "componentType" : 5126,
            "count" : 6676,
            "type" : "VEC3"
        },
        {
            "bufferView" : 2,
            "componentType" : 5126,
            "count" : 6676,
            "type" : "VEC2"
        },
        {
            "bufferView" : 3,
            "componentType" : 5123,
            "count" : 7680,
            "type" : "SCALAR"
        },
        {
            "bufferView" : 5,
            "componentType" : 5126,
            "count" : 6754,
            "max" : [
                0.9987990856170654,
                0.08008585125207901,
                0.9888110756874084
            ],
            "min" : [
                -0.9987990856170654,
                -0.03477887436747551,
                -0.9888110756874084
            ],
            "type" : "VEC3"
        },
        {
            "bufferView" : 6,
            "componentType" : 5126,
            "count" : 6754,
            "type" : "VEC3"
        },
        {
            "bufferView" : 7,
            "componentType" : 5126,
            "count" : 6754,
            "type" : "VEC2"
        },
        {
            "bufferView" : 8,
            "componentType" : 5123,
            "count" : 7680,
            "type" : "SCALAR"
        },
        {
            "bufferView" : 10,
            "componentType" : 5126,
            "count" : 7234,
            "max" : [
                0.9987990856170654,
                0.08008585125207901,
                0.9888110756874084
            ],
            "min" : [
                -0.9987990856170654,
                -0.03477887436747551,
                -0.9888110756874084
            ],
            "type" : "VEC3"
        },
        {
            "bufferView" : 11,
            "componentType" : 5126,
            "count" : 7234,
            "type" : "VEC3"
        },
        {
            "bufferView" : 12,
            "componentType" : 5126,
            "count" : 7234,
            "type" : "VEC2"
        },
        {
            "bufferView" : 13,
            "componentType" : 5123,
            "count" : 9216,
            "type" : "SCALAR"
        }
    ],
    "bufferViews" : [
        {
            "buffer" : 0,
            "byteLength" : 80112,
            "byteOffset" : 0,
            "target" : 34962
        },
        {
            "buffer" : 0,
            "byteLength" : 80112,
            "byteOffset" : 80112,
            "target" : 34962
        },
        {
            "buffer" : 0,
            "byteLength" : 53408,
            "byteOffset" : 160224,
            "target" : 34962
        },
        {
            "buffer" : 0,
            "byteLength" : 15360,
            "byteOffset" : 213632,
            "target" : 34963
        },
        {
            "buffer" : 0,
            "byteLength" : 6250,
            "byteOffset" : 228992
        },
        {
            "buffer" : 0,
            "byteLength" : 81048,
            "byteOffset" : 235244,
            "target" : 34962
        },
        {
            "buffer" : 0,
            "byteLength" : 81048,
            "byteOffset" : 316292,
            "target" : 34962
        },
        {
            "buffer" : 0,
            "byteLength" : 54032,
            "byteOffset" : 397340,
            "target" : 34962
        },
        {
            "buffer" : 0,
            "byteLength" : 15360,
            "byteOffset" : 451372,
            "target" : 34963
        },
        {
            "buffer" : 0,
            "byteLength" : 200630,
            "byteOffset" : 466732
        },
        {
            "buffer" : 0,
            "byteLength" : 86808,
            "byteOffset" : 667364,
            "target" : 34962
        },
        {
            "buffer" : 0,
            "byteLength" : 86808,
            "byteOffset" : 754172,
            "target" : 34962
        },
        {
            "buffer" : 0,
            "byteLength" : 57872,
            "byteOffset" : 840980,
            "target" : 34962
        },
        {
            "buffer" : 0,
            "byteLength" : 18432,
            "byteOffset" : 898852,
            "target" : 34963
        },
        {
            "buffer" : 0,
            "byteLength" : 67086,
            "byteOffset" : 917284
        }
    ],
    "samplers" : [
        {
            "magFilter" : 9729,
            "minFilter" : 9987
        }
    ],
    "buffers" : [
        {
            "byteLength" : 984372,
            "uri" : "data:application/octet-stream;base64,"
        }
    ]
}
